HIERARCHY
ROOT Hips
{
	OFFSET 0.000000 0.000000 0.000000
	CHANNELS 6 Xposition Yposition Zposition Zrotation Yrotation Xrotation 
	JOINT LHipJoint
	{
		OFFSET 0.000000 0.000000 0.000000
		CHANNELS 3 Zrotation Yrotation Xrotation
		JOINT LeftUpLeg
		{
			OFFSET 1.363060 -1.794630 0.839290
			CHANNELS 3 Zrotation Yrotation Xrotation
			JOINT LeftLeg
			{
				OFFSET 2.448110 -6.726130 0.000000
				CHANNELS 3 Zrotation Yrotation Xrotation
				JOINT LeftFoot
				{
					OFFSET 2.562200 -7.039590 0.000000
					CHANNELS 3 Zrotation Yrotation Xrotation
					JOINT LeftToeBase
					{
						OFFSET 0.157640 -0.433110 2.322550
						CHANNELS 3 Zrotation Yrotation Xrotation
						End Site
						{
							OFFSET 0.000000 0.000000 0.000000
						}
					}
				}
			}
		}
	}
	JOINT RHipJoint
	{
		OFFSET 0.000000 0.000000 0.000000
		CHANNELS 3 Zrotation Yrotation Xrotation
		JOINT RightUpLeg
		{
			OFFSET -1.305520 -1.794630 0.839290
			CHANNELS 3 Zrotation Yrotation Xrotation
			JOINT RightLeg
			{
				OFFSET -2.542530 -6.985550 0.000000
				CHANNELS 3 Zrotation Yrotation Xrotation
				JOINT RightFoot
				{
					OFFSET -2.568260 -7.056230 0.000000
					CHANNELS 3 Zrotation Yrotation Xrotation
					JOINT RightToeBase
					{
						OFFSET -0.164730 -0.452590 2.363150
						CHANNELS 3 Zrotation Yrotation Xrotation
						End Site
						{
							OFFSET 0.000000 0.000000 0.000000
						}
					}
				}
			}
		}
	}
}
MOTION
Frames: 27
Frame Time: 0.008333
7.038327 21.142251 1.122100 67.675616 -84.703003 -30.264874 -11.126545 0.580187 2.854981 -12.055557 -4.200951 -61.005088 3.413058 4.551004 92.086097 2.599682 14.174951 -0.821171 1.738600 0.000000 -48.843800 12.351833 0.564317 1.368383 2.863845 -7.601126 -58.619821 -3.132471 -5.897411 88.608340 -1.407339 -5.762252 -7.536910 -0.133700 0.000001 -69.777700
6.917913 21.258810 1.112393 68.071848 -84.761819 -29.442289 -11.099384 0.074572 2.717269 -12.664147 -4.701739 -66.026049 4.257767 5.145372 98.499375 2.736238 14.905384 -3.920276 1.155500 -0.000000 -45.650300 12.344055 1.049082 1.331290 3.582552 -7.523008 -64.020686 -3.964768 -6.582192 94.990093 -1.331174 -5.293792 -10.112672 0.094400 -0.000000 -68.134101
6.794900 21.357324 1.104795 68.420427 -84.828074 -28.395721 -11.022629 -0.466537 2.665429 -13.166180 -5.451135 -71.326332 5.207698 5.718336 104.443721 2.840876 15.361755 -6.744808 0.546400 0.000001 -42.464400 12.284522 1.559154 1.384212 4.318479 -7.245565 -69.722606 -4.904076 -7.248671 100.945431 -1.204475 -4.497062 -12.405466 0.251300 0.000000 -66.810700
6.668485 21.437706 1.099241 68.774411 -84.900793 -27.195263 -10.885501 -1.032289 2.695182 -13.525089 -6.444172 -76.886614 6.239758 6.259773 109.861753 2.908417 15.541172 -9.282545 -0.043700 -0.000000 -39.469800 12.166731 2.087866 1.533455 5.019099 -6.748736 -75.703233 -5.931795 -7.883449 106.436265 -1.038798 -3.440264 -14.418829 0.318800 -0.000001 -65.906900
6.538240 21.500564 1.095504 69.164272 -84.979065 -25.900941 -10.682260 -1.605889 2.792082 -13.702144 -7.655577 -82.668925 7.321901 6.763040 114.707177 2.937112 15.459074 -11.526814 -0.578000 0.000000 -36.801700 11.987884 2.624084 1.775422 5.625128 -6.031145 -81.918522 -7.021251 -8.475287 111.429530 -0.849843 -2.213467 -16.164178 0.296700 0.000000 -65.478700
6.404001 21.547010 1.093135 69.611567 -85.060700 -24.572271 -10.412882 -2.165412 2.933844 -13.665277 -9.039883 -88.619137 8.414999 7.225752 118.945369 2.928904 15.147234 -13.476608 -1.031500 0.000000 -34.546699 11.749541 3.152834 2.098090 6.076847 -5.111750 -88.308978 -8.139039 -9.016478 115.898334 -0.655827 -0.919308 -17.666445 0.200799 0.000000 -65.517700
6.265523 21.577896 1.091591 70.125333 -85.142688 -23.258785 -10.083393 -2.686450 3.093952 -13.395791 -10.536762 -94.671753 9.477428 7.650374 122.558043 2.889305 14.651104 -15.136201 -1.391800 0.000000 -32.746700 11.457597 3.656707 2.482062 6.323396 -4.030124 -94.806616 -9.249435 -9.504237 119.829943 -0.475798 0.334605 -18.963363 0.057500 -0.000000 -65.954100
6.122722 21.595225 1.090202 70.697592 -85.221951 -21.994347 -9.704785 -3.145542 3.244712 -12.892639 -12.077817 -100.754982 10.470359 8.044155 125.544527 2.826776 14.026480 -16.515215 -1.657800 -0.000000 -31.413800 11.121181 4.118000 2.902897 6.330545 -2.839345 -101.341884 -10.316459 -9.940732 123.220188 -0.327663 1.445181 -20.102806 -0.101300 0.000000 -66.664300
5.975533 21.600030 1.088274 71.312673 -85.296326 -20.804343 -9.291689 -3.522639 3.361885 -12.173654 -13.594051 -106.794955 11.362409 8.417977 127.921588 2.751542 13.334042 -17.629808 -1.838100 0.000000 -30.532600 10.752251 4.520540 3.334807 6.083661 -1.598374 -107.847849 -11.309586 -10.332296 126.081010 -0.226558 2.321453 -21.133993 -0.242400 0.000000 -67.489500
5.823736 21.593901 1.085297 71.913396 -85.364454 -19.661825 -8.860256 -3.802752 3.428781 -11.269333 -15.028352 -112.725567 12.132073 8.784024 129.718295 2.674843 12.637740 -18.494559 -1.946700 -0.000001 -30.078200 10.363897 4.850865 3.753354 5.590006 -0.364108 -114.266779 -12.203006 -10.688400 128.426852 -0.183000 2.896150 -22.094227 -0.335400 -0.000000 -68.255299
5.668341 21.578786 1.081932 71.951385 -85.391910 -18.043002 -8.424962 -3.975757 3.446362 -10.193019 -16.400019 -118.490374 12.762804 9.147819 130.959768 2.608176 12.002472 -19.120880 -1.999500 0.000000 -29.994600 9.969661 5.102755 4.123964 4.893864 0.758182 -120.547718 -12.978865 -11.026003 130.275662 -0.203058 3.130440 -23.007138 -0.355500 -0.000000 -68.830500
5.507458 21.555321 1.074807 72.801065 -85.481897 -17.352084 -8.007204 -4.041522 3.382068 -9.067257 -17.494712 -124.005910 13.256622 9.537361 131.705617 2.553948 11.436546 -19.567142 -2.018000 -0.000001 -30.193600 9.583300 5.260775 4.467542 3.963141 1.901968 -126.619029 -13.618358 -11.337820 131.640614 -0.289003 2.996334 -23.878302 -0.283399 -0.000000 -69.014500
5.340090 21.523178 1.066044 73.169974 -85.547808 -16.320476 -7.619356 -3.997862 3.273549 -7.886967 -18.444005 -129.212845 13.609501 9.942808 131.991056 2.518250 10.977630 -19.839523 -2.011200 0.000000 -30.605600 9.220822 5.331363 4.741891 2.907395 2.879581 -132.416552 -14.122282 -11.649344 132.557986 -0.432235 2.551570 -24.697232 -0.122100 0.000000 -68.830000
5.167276 21.483914 1.055992 73.055824 -85.605932 -14.935960 -7.272785 -3.851615 3.137145 -6.677072 -19.244404 -134.092669 13.817828 10.365948 131.830904 2.502627 10.637070 -19.936800 -1.982500 -0.000001 -31.179500 8.893417 5.313644 4.953163 1.765951 3.707483 -137.905501 -14.480655 -11.967646 133.023608 -0.622739 1.847410 -25.423439 0.119200 0.000000 -68.223899
4.988975 21.438183 1.044266 72.762255 -85.677127 -13.497166 -6.979338 -3.613400 2.988694 -5.485367 -19.876854 -138.600888 13.879165 10.806493 131.240969 2.503700 10.400992 -19.860442 -1.931100 0.000000 -31.871200 8.612028 5.210493 5.113642 0.565401 4.413769 -143.030133 -14.683107 -12.295452 133.030301 -0.843525 0.970085 -26.011489 0.413800 -0.000000 -67.221700
4.804780 21.387202 1.030775 72.449571 -85.763872 -12.162536 -6.748125 -3.298459 2.847539 -4.356210 -20.351656 -142.675886 13.788337 11.255706 130.229306 2.515284 10.244206 -19.601318 -1.850200 0.000000 -32.665100 8.386284 5.031834 5.233416 -0.653122 4.999765 -147.719577 -14.721441 -12.633861 132.575867 -1.071615 0.034863 -26.417116 0.720700 -0.000000 -65.941900
4.614634 21.331623 1.015884 72.192572 -85.872835 -11.003243 -6.584427 -2.929501 2.732408 -3.316968 -20.678735 -146.262603 13.540576 11.698462 128.799887 2.529204 10.134257 -19.139967 -1.729700 0.000000 -33.575600 8.220656 4.791358 5.321757 -1.836064 5.480101 -151.896170 -14.586192 -12.979930 131.655921 -1.281997 -0.837201 -26.603462 0.993400 0.000000 -64.559199
4.418773 21.272779 0.999998 72.090730 -86.008195 -10.107310 -6.488844 -2.532674 2.657978 -2.388544 -20.872234 -149.310107 13.133437 12.114505 126.956122 2.537327 10.040253 -18.451706 -1.559200 0.000000 -34.637100 8.115534 4.506465 5.389129 -2.935355 5.875223 -155.495313 -14.272438 -13.325505 130.274933 -1.450098 -1.534102 -26.540317 1.189500 -0.000000 -63.299000
4.217641 21.211447 0.983432 72.276608 -86.169426 -9.593403 -6.457390 -2.133504 2.634811 -1.585860 -20.949569 -151.777370 12.569057 12.481059 124.702084 2.533106 9.937939 -17.512494 -1.331300 -0.000000 -35.889200 8.068431 4.196114 5.448057 -3.914927 6.206682 -158.464803 -13.778935 -13.656854 128.440391 -1.554722 -1.965665 -26.207697 1.279000 0.000000 -62.397900
4.011949 21.148089 0.966480 72.881002 -86.354489 -9.580406 -6.482133 -1.755530 2.667369 -0.918095 -20.927096 -153.630541 11.856206 12.774212 122.046357 2.512332 9.811491 -16.305663 -1.043800 0.000001 -37.359800 8.073735 3.879389 5.508820 -4.749526 6.494508 -160.768453 -13.111832 -13.956272 126.167727 -1.580176 -2.072189 -25.596732 1.249700 0.000000 -62.047399
3.802509 21.083592 0.949373 74.022495 -86.558676 -10.177674 -6.552703 -1.416836 2.755199 -0.387403 -20.819547 -154.850956 11.009508 12.972577 118.996930 2.473507 9.653004 -14.826498 -0.700099 0.000000 -39.053400 8.123876 3.573296 5.578746 -5.424578 6.754722 -162.385981 -12.285865 -14.204090 123.480876 -1.517355 -1.826851 -24.711354 1.109800 -0.000000 -62.340700
3.589838 21.018468 0.931902 75.881638 -86.771937 -11.566075 -6.658468 -1.126800 2.897549 -0.000406 -20.642888 -155.425843 10.050058 13.059589 115.564590 2.417230 9.460364 -13.084700 -0.309300 0.000001 -40.943500 8.211860 3.290763 5.668527 -5.941696 6.994918 -163.307808 -11.322988 -14.379275 120.407768 -1.364736 -1.237395 -23.569052 0.886200 0.000000 -63.245200
3.374422 20.952948 0.914439 78.490211 -86.990610 -13.772763 -6.788794 -0.890232 3.085451 0.253410 -20.406186 -155.367726 9.002664 13.024448 111.757433 2.345913 9.237289 -11.102646 0.116100 0.000000 -42.974900 8.328197 3.040862 5.776255 -6.301662 7.220655 -163.544200 -10.250576 -14.466392 116.976690 -1.127992 -0.341087 -22.197089 0.618800 0.000000 -64.627900
3.156656 20.887241 0.896627 81.962901 -87.204380 -16.924861 -6.934535 -0.702258 3.312035 0.369318 -20.123568 -154.685708 7.894393 12.863242 107.582831 2.262255 8.989314 -8.914612 0.561800 0.000000 -45.071500 8.465379 2.828208 5.905165 -6.519204 7.430002 -163.109442 -9.100706 -14.451303 113.217771 -0.820224 0.794784 -20.627739 0.353200 0.000000 -66.294500
2.936446 20.820976 0.878766 86.240290 -87.411761 -20.966945 -7.088827 -0.554214 3.567123 0.356889 -19.803786 -153.412208 6.751928 12.578801 103.043395 2.169075 8.724682 -6.562534 1.014200 0.000000 -47.147301 8.615693 2.652328 6.049387 -6.603289 7.623374 -162.031510 -7.906646 -14.327990 109.159124 -0.460803 2.081759 -18.893918 0.132300 0.000000 -68.047100
2.714143 20.754263 0.860649 91.279472 -87.608503 -25.875881 -7.245131 -0.433003 3.839661 0.211060 -19.459649 -151.572930 5.599463 12.178816 98.138194 2.068068 8.451985 -4.091169 1.462000 -0.000000 -49.126200 8.772818 2.510349 6.202927 -6.568852 7.799289 -160.340282 -6.700603 -14.093771 104.824328 -0.074172 3.414361 -17.023664 -0.010400 -0.000000 -69.723500
2.489485 20.686004 0.842589 96.877154 -87.797777 -31.459369 -7.399724 -0.326024 4.119644 -0.066336 -19.100909 -149.206140 4.457961 11.675363 92.864464 1.959788 8.180234 -1.542668 1.898000 -0.000000 -50.954300 8.931581 2.393653 6.354917 -6.420092 7.963340 -158.073859 -5.511782 -13.753160 100.234956 0.312858 4.682629 -15.037182 -0.056400 -0.000000 -71.218800
